<?xml version="1.0" standalone="no"?>
<!DOCTYPE svg PUBLIC "-//W3C//DTD SVG 20010904//EN"
 "http://www.w3.org/TR/2001/REC-SVG-20010904/DTD/svg10.dtd">
<svg version="1.0" xmlns="http://www.w3.org/2000/svg"
 width="550.000000pt" height="550.000000pt" viewBox="0 0 550.000000 550.000000"
 preserveAspectRatio="xMidYMid meet">
<metadata>
Created by potrace 1.11, written by Peter Selinger 2001-2013
</metadata>
<g transform="translate(0.000000,550.000000) scale(0.100000,-0.100000)"
fill="#000000" stroke="none">
<path d="M0 2750 l0 -2750 2750 0 2750 0 0 2750 0 2750 -2750 0 -2750 0 0
-2750z m3045 2006 c410 -59 785 -216 1117 -467 105 -80 310 -280 395 -384 170
-212 299 -440 390 -689 29 -80 72 -225 73 -243 0 -10 -467 -13 -2301 -13
-2186 0 -2300 1 -2296 18 138 505 403 931 773 1240 381 317 831 505 1319 551
127 12 400 5 530 -13z m2009 -1943 c9 -49 16 -103 16 -120 l0 -33 -2350 0
c-1873 0 -2350 3 -2350 13 0 18 30 200 35 215 3 9 476 12 2319 12 l2314 0 16
-87z m30 -274 c3 -17 6 -62 6 -100 0 -59 -3 -69 -17 -69 -10 0 -1074 -1 -2366
-3 l-2347 -2 0 103 0 102 2359 0 2359 0 6 -31z m-4 -304 c0 -16 -3 -60 -7 -97
l-6 -68 -2343 0 -2342 0 -6 38 c-3 20 -8 64 -11 97 l-6 60 2360 0 2361 0 0
-30z m-40 -297 c0 -4 -7 -41 -17 -83 l-16 -75 -2283 0 c-2165 0 -2283 1 -2288
18 -3 9 -10 40 -16 67 -6 28 -13 57 -15 65 -4 13 258 15 2315 15 1276 0 2320
-3 2320 -7z m-4490 -325 c0 -8 -4 -12 -9 -9 -15 10 -19 -18 -4 -32 7 -7 13
-19 13 -25 0 -7 -4 -6 -10 3 -16 25 -12 -7 6 -41 8 -17 14 -35 12 -41 -3 -9
-68 140 -68 156 0 2 14 4 30 4 19 -1 30 -6 30 -15z m4378 -63 c-16 -41 -34
-79 -39 -85 -10 -10 -6 8 11 50 5 11 11 31 14 45 4 21 3 22 -7 9 -16 -20 -101
-14 -93 7 5 12 -304 14 -2078 14 -1147 0 -2091 3 -2099 6 -11 4 -17 -4 -22
-25 -5 -23 -12 -31 -28 -31 -18 0 -19 2 -7 10 13 8 13 10 -2 10 -30 0 -31 56
0 62 9 2 997 3 2197 3 l2181 0 -28 -75z m-28 -20 c0 -5 -4 -10 -10 -10 -5 0
-10 5 -10 10 0 6 5 10 10 10 6 0 10 -4 10 -10z m-80 -218 c0 -5 -7 -17 -15
-28 -14 -18 -14 -17 -4 9 12 27 19 34 19 19z m-4150 -67 c0 -11 -14 7 -31 40
-7 13 -3 12 10 -5 11 -14 21 -29 21 -35z"/>
<path d="M4885 1590 c-4 -12 -5 -24 -2 -27 3 -2 8 5 12 17 4 12 5 24 2 27 -3
2 -8 -5 -12 -17z"/>
</g>
</svg>
